<mxfile host="65bd71144e">
    <diagram id="V7hC7Ia_DJyM14xFZ34Q" name="Page-1">
        <mxGraphModel dx="2873" dy="1611" grid="1" gridSize="10" guides="1" tooltips="1" connect="1" arrows="1" fold="1" page="1" pageScale="1" pageWidth="850" pageHeight="1100" math="0" shadow="0">
            <root>
                <mxCell id="0"/>
                <mxCell id="1" parent="0"/>
                <mxCell id="2" value="10.0.0.2" style="rounded=0;whiteSpace=wrap;html=1;fontSize=21;" parent="1" vertex="1">
                    <mxGeometry x="533" y="1120" width="150" height="60" as="geometry"/>
                </mxCell>
                <mxCell id="4" value="Source MAC" style="rounded=0;whiteSpace=wrap;html=1;fontSize=21;" parent="1" vertex="1">
                    <mxGeometry x="190" y="1120" width="170" height="60" as="geometry"/>
                </mxCell>
                <mxCell id="5" value="Destination MAC" style="rounded=0;whiteSpace=wrap;html=1;fontSize=21;" parent="1" vertex="1">
                    <mxGeometry x="361" y="1120" width="170" height="60" as="geometry"/>
                </mxCell>
                <mxCell id="6" value="11.1.1.2" style="rounded=0;whiteSpace=wrap;html=1;fontSize=21;" parent="1" vertex="1">
                    <mxGeometry x="683" y="1120" width="150" height="60" as="geometry"/>
                </mxCell>
                <mxCell id="15" value="L4 Header" style="rounded=0;whiteSpace=wrap;html=1;fontSize=21;" parent="1" vertex="1">
                    <mxGeometry x="833" y="1120" width="150" height="60" as="geometry"/>
                </mxCell>
                <mxCell id="16" value="" style="endArrow=none;html=1;fontSize=26;entryX=0.371;entryY=1.042;entryDx=0;entryDy=0;exitX=0.972;exitY=-0.022;exitDx=0;exitDy=0;entryPerimeter=0;endFill=0;startArrow=classic;startFill=1;exitPerimeter=0;" parent="1" source="2" target="20" edge="1">
                    <mxGeometry width="50" height="50" relative="1" as="geometry">
                        <mxPoint x="430.5" y="469.9999999999999" as="sourcePoint"/>
                        <mxPoint x="430" y="750" as="targetPoint"/>
                    </mxGeometry>
                </mxCell>
                <mxCell id="17" value="10.0.0.2" style="rounded=0;whiteSpace=wrap;html=1;fontSize=18;" parent="1" vertex="1">
                    <mxGeometry x="473" y="640" width="150" height="60" as="geometry"/>
                </mxCell>
                <mxCell id="18" value="Source MAC" style="rounded=0;whiteSpace=wrap;html=1;fontSize=18;" parent="1" vertex="1">
                    <mxGeometry x="130" y="640" width="170" height="60" as="geometry"/>
                </mxCell>
                <mxCell id="19" value="Destination MAC" style="rounded=0;whiteSpace=wrap;html=1;fontSize=18;" parent="1" vertex="1">
                    <mxGeometry x="301" y="640" width="170" height="60" as="geometry"/>
                </mxCell>
                <mxCell id="53" style="edgeStyle=none;html=1;exitX=0.364;exitY=0.019;exitDx=0;exitDy=0;exitPerimeter=0;endArrow=none;endFill=0;startArrow=classic;startFill=1;" edge="1" parent="1" source="20">
                    <mxGeometry relative="1" as="geometry">
                        <mxPoint x="678" y="210" as="targetPoint"/>
                    </mxGeometry>
                </mxCell>
                <mxCell id="20" value="11.1.1.2" style="rounded=0;whiteSpace=wrap;html=1;fontSize=18;" parent="1" vertex="1">
                    <mxGeometry x="623" y="640" width="150" height="60" as="geometry"/>
                </mxCell>
                <mxCell id="22" value="ESP Header&lt;br style=&quot;font-size: 18px;&quot;&gt;(SPI 0x10203040)" style="rounded=0;whiteSpace=wrap;html=1;fontSize=18;" parent="1" vertex="1">
                    <mxGeometry x="773" y="640" width="157" height="60" as="geometry"/>
                </mxCell>
                <mxCell id="23" value="Payload" style="rounded=0;whiteSpace=wrap;html=1;fontSize=21;" parent="1" vertex="1">
                    <mxGeometry x="983" y="1120" width="150" height="60" as="geometry"/>
                </mxCell>
                <mxCell id="29" value="L4 Header&lt;br style=&quot;font-size: 18px;&quot;&gt;(Encrypted)" style="rounded=0;whiteSpace=wrap;html=1;fontSize=18;" parent="1" vertex="1">
                    <mxGeometry x="930" y="640" width="150" height="60" as="geometry"/>
                </mxCell>
                <mxCell id="30" value="Payload&lt;br style=&quot;font-size: 18px;&quot;&gt;(Encrypted)" style="rounded=0;whiteSpace=wrap;html=1;fontSize=18;" parent="1" vertex="1">
                    <mxGeometry x="1080" y="640" width="150" height="60" as="geometry"/>
                </mxCell>
                <mxCell id="36" value="10.0.0.2" style="rounded=0;whiteSpace=wrap;html=1;fontSize=18;" parent="1" vertex="1">
                    <mxGeometry x="890" y="150" width="101" height="60" as="geometry"/>
                </mxCell>
                <mxCell id="37" value="Source MAC" style="rounded=0;whiteSpace=wrap;html=1;fontSize=18;" parent="1" vertex="1">
                    <mxGeometry x="-10" y="150" width="120" height="60" as="geometry"/>
                </mxCell>
                <mxCell id="38" value="Destination MAC" style="rounded=0;whiteSpace=wrap;html=1;fontSize=18;" parent="1" vertex="1">
                    <mxGeometry x="110" y="150" width="111" height="60" as="geometry"/>
                </mxCell>
                <mxCell id="39" value="11.1.1.2" style="rounded=0;whiteSpace=wrap;html=1;fontSize=18;" parent="1" vertex="1">
                    <mxGeometry x="991" y="150" width="121" height="60" as="geometry"/>
                </mxCell>
                <mxCell id="40" value="ESP Header&lt;br style=&quot;font-size: 18px;&quot;&gt;(SPI 0x10203040)" style="rounded=0;whiteSpace=wrap;html=1;fontSize=18;" parent="1" vertex="1">
                    <mxGeometry x="1112" y="150" width="157" height="60" as="geometry"/>
                </mxCell>
                <mxCell id="41" value="L4 Header&lt;br style=&quot;font-size: 18px;&quot;&gt;(Encrypted)" style="rounded=0;whiteSpace=wrap;html=1;fontSize=18;" parent="1" vertex="1">
                    <mxGeometry x="1269" y="150" width="142" height="60" as="geometry"/>
                </mxCell>
                <mxCell id="42" value="Payload&lt;br style=&quot;font-size: 18px;&quot;&gt;(Encrypted)" style="rounded=0;whiteSpace=wrap;html=1;fontSize=18;" parent="1" vertex="1">
                    <mxGeometry x="1411" y="150" width="150" height="60" as="geometry"/>
                </mxCell>
                <mxCell id="43" value="8.8.8.8" style="rounded=0;whiteSpace=wrap;html=1;fontSize=18;" parent="1" vertex="1">
                    <mxGeometry x="221" y="150" width="150" height="60" as="geometry"/>
                </mxCell>
                <mxCell id="44" value="9.9.9.9" style="rounded=0;whiteSpace=wrap;html=1;fontSize=18;" parent="1" vertex="1">
                    <mxGeometry x="371" y="150" width="150" height="60" as="geometry"/>
                </mxCell>
                <mxCell id="45" value="GENEVE Header&lt;br style=&quot;font-size: 18px;&quot;&gt;(VNI=100)" style="rounded=0;whiteSpace=wrap;html=1;fontSize=18;" parent="1" vertex="1">
                    <mxGeometry x="521" y="150" width="129" height="60" as="geometry"/>
                </mxCell>
                <mxCell id="47" value="&lt;font style=&quot;font-size: 21px&quot;&gt;ipTunnelRule&lt;br&gt;(Tunnel ID 1)&lt;br&gt;&lt;br&gt;&lt;u&gt;Match:&lt;/u&gt;&lt;br&gt;GENEVE VNI: 100&lt;br&gt;&lt;br&gt;&lt;u&gt;Tunnel:&lt;/u&gt;&lt;br&gt;GENEVEDecap&lt;br&gt;&lt;br&gt;&lt;u&gt;nextAction&lt;br&gt;&lt;/u&gt;RECIRCULATE&lt;br&gt;&lt;/font&gt;" style="whiteSpace=wrap;html=1;" vertex="1" parent="1">
                    <mxGeometry x="370" y="260" width="238" height="300" as="geometry"/>
                </mxCell>
                <mxCell id="49" value="Inner Source&lt;br style=&quot;font-size: 18px;&quot;&gt;Mac" style="rounded=0;whiteSpace=wrap;html=1;fontSize=18;" vertex="1" parent="1">
                    <mxGeometry x="650" y="150" width="120" height="60" as="geometry"/>
                </mxCell>
                <mxCell id="50" value="Inner Dest&amp;nbsp;&lt;br style=&quot;font-size: 18px;&quot;&gt;MAC" style="rounded=0;whiteSpace=wrap;html=1;fontSize=18;" vertex="1" parent="1">
                    <mxGeometry x="770" y="150" width="120" height="60" as="geometry"/>
                </mxCell>
                <mxCell id="54" value="&lt;font style=&quot;font-size: 23px&quot;&gt;Tunnel ID 1 Match&lt;/font&gt;" style="text;html=1;align=center;verticalAlign=middle;resizable=0;points=[];autosize=1;strokeColor=none;fillColor=none;" vertex="1" parent="1">
                    <mxGeometry x="655" y="420" width="200" height="20" as="geometry"/>
                </mxCell>
                <mxCell id="55" value="&lt;font style=&quot;font-size: 21px&quot;&gt;ipTunnelRule&lt;br&gt;(Tunnel ID 2)&lt;br&gt;&lt;br&gt;&lt;u&gt;Match:&lt;br&gt;&lt;/u&gt;IPSec Packet&lt;br&gt;SPI : 0x10203040&lt;br&gt;&lt;br&gt;&lt;u&gt;Tunnel:&lt;/u&gt;&lt;br&gt;IPSec Decryption&lt;br&gt;AuthKey&lt;br&gt;EncKey&lt;br&gt;&lt;br&gt;&lt;u&gt;nextAction&lt;br&gt;&lt;/u&gt;FORWARD&lt;br&gt;&lt;/font&gt;" style="whiteSpace=wrap;html=1;" vertex="1" parent="1">
                    <mxGeometry x="371" y="720" width="238" height="370" as="geometry"/>
                </mxCell>
                <mxCell id="56" value="&lt;font style=&quot;font-size: 23px&quot;&gt;Tunnel ID 2 Match&lt;/font&gt;" style="text;html=1;align=center;verticalAlign=middle;resizable=0;points=[];autosize=1;strokeColor=none;fillColor=none;strokeWidth=5;" vertex="1" parent="1">
                    <mxGeometry x="665" y="900" width="200" height="20" as="geometry"/>
                </mxCell>
            </root>
        </mxGraphModel>
    </diagram>
</mxfile>